<?xml version="1.0" encoding="UTF-8"?><svg id="b" xmlns="http://www.w3.org/2000/svg" width="752.3" height="698.05" viewBox="0 0 752.3 698.05"><defs><style>.d{fill:rgba(255,255,255,.85);}</style></defs><g id="c"><path class="d" d="M449.15,349.04L741.45,63.09c6.43-6.83,10.85-16.48,10.85-26.12,0-20.9-16.07-36.97-36.97-36.97-10.05,0-18.89,4.02-26.12,10.85l-318.28,311.45c-7.64,6.43-12.06,16.48-12.06,26.92s4.42,19.29,12.06,26.93l318.28,311.05c6.83,6.83,16.08,10.85,26.12,10.85,20.9,0,36.97-15.67,36.97-36.57,0-10.05-4.42-19.29-10.85-26.12l-292.3-286.32Z"/><path class="d" d="M89.91,349.04L382.58,63.09c6.43-6.83,10.45-16.48,10.45-26.12,0-20.9-15.67-36.97-36.57-36.97-10.45,0-19.29,4.02-26.12,10.85L12.06,322.3c-7.64,6.43-12.06,16.48-12.06,26.92s4.02,19.29,11.65,26.93l318.68,311.05c6.83,6.83,15.67,10.85,26.12,10.85,20.9,0,36.57-15.67,36.57-36.57,0-10.05-4.02-19.29-10.45-26.12L89.91,349.04Z"/></g></svg>