<?xml version="1.0" encoding="UTF-8"?><svg id="b" xmlns="http://www.w3.org/2000/svg" width="753.16" height="698.85" viewBox="0 0 753.16 698.85"><defs><style>.d{fill:#fff;}</style></defs><g id="c"><path class="d" d="M741.09,322.67L422.45,10.86c-7.24-6.84-15.69-10.86-26.15-10.86-20.92,0-37.01,16.09-37.01,37.01,0,9.66,4.43,19.31,10.86,26.15l292.63,286.27-292.63,286.65c-6.44,6.84-10.86,16.09-10.86,26.15,0,20.92,16.09,36.61,37.01,36.61,10.46,0,19.31-4.02,26.15-10.86l318.65-311.4c7.64-7.64,12.07-16.9,12.07-26.96s-4.43-20.52-12.07-26.96Z"/><path class="d" d="M393.48,349.63c0-10.46-4.02-20.52-11.67-26.96L62.76,10.86C55.92,4.02,47.07,0,36.61,0,15.69,0,0,16.09,0,37.01c0,9.66,4.02,19.31,10.46,26.15l293.01,286.27L10.46,636.09c-6.44,6.84-10.46,16.09-10.46,26.15,0,20.92,15.69,36.61,36.61,36.61,10.46,0,19.31-4.02,26.55-10.86l318.65-311.4c7.64-7.64,11.67-16.9,11.67-26.96Z"/></g></svg>