<?xml version="1.0" encoding="UTF-8"?><svg id="b" xmlns="http://www.w3.org/2000/svg" width="393.48" height="698.45" viewBox="0 0 393.48 698.45"><defs><style>.d{fill:rgba(255,255,255,.85);}</style></defs><g id="c"><path class="d" d="M393.48,349.22c0-10.06-4.02-19.31-11.67-26.55L63.17,10.46C55.92,3.62,47.07,0,36.61,0,16.09,0,0,15.69,0,36.61c0,10.06,4.02,19.31,10.46,26.15l292.9,286.46L10.46,635.68c-6.44,6.84-10.46,15.69-10.46,26.15,0,20.92,16.09,36.61,36.61,36.61,10.46,0,19.31-3.62,26.55-10.86l318.65-311.81c7.64-7.64,11.67-16.5,11.67-26.55Z"/></g></svg>