<?xml version="1.0" encoding="UTF-8"?><svg id="b" xmlns="http://www.w3.org/2000/svg" width="393.03" height="697.64" viewBox="0 0 393.03 697.64"><defs><style>.d{fill:rgba(255,255,255,.85);}</style></defs><g id="c"><path class="d" d="M0,348.82c0,10.05,3.62,18.89,11.25,26.52l318.68,311.45c6.83,7.23,15.67,10.85,26.12,10.85,20.9,0,36.97-15.67,36.97-36.57,0-10.45-4.42-19.29-10.85-26.12L89.62,348.82,382.18,62.69c6.43-6.83,10.85-16.07,10.85-26.12,0-20.9-16.07-36.57-36.97-36.57-10.45,0-19.29,3.62-26.12,10.45L11.25,322.3c-7.64,7.23-11.25,16.48-11.25,26.52Z"/></g></svg>